<svg xmlns="http://www.w3.org/2000/svg" viewBox="0 0 64 64" xml:space="preserve" fill-rule="evenodd" clip-rule="evenodd" stroke-linejoin="round" stroke-miterlimit="2"><path d="M19.3 24.8a31 31 0 0 0-12.5 3.7c-1.2.9-1.8 1.9-1.8 3 0 .5.2 1.2.7 1.8.5.7 1.5 1.4 2.7 2l2 .8.6 3.2-1.4 5.1c-1.7 0-3.3.3-5 1a1 1 0 0 0 1 1.9c1.1-.6 2.4-1 3.6-1a9.6 9.6 0 0 0 .1 3 9 9 0 0 0-4.1 2.1A1 1 0 0 0 6.5 53a8 8 0 0 1 3.4-1.8c.5 1.3 1.4 2.6 2.4 3.8 4 4 11.2 7 19.7 7 8.4 0 15.9-3 19.8-7.2 1-1.1 1.9-2.4 2.4-3.7a9 9 0 0 1 3.3 1.8 1 1 0 0 0 1.3-1.5c-1.2-1-2.6-1.8-4-2.2a9.1 9.1 0 0 0 0-2.8 8 8 0 0 1 3.7.9 1 1 0 0 0 .8-1.8 8.5 8.5 0 0 0-4.9-1l-1.5-5a48.6 48.6 0 0 0 .6-3.4 19.6 19.6 0 0 0 2-.8 7.8 7.8 0 0 0 2.8-2 3 3 0 0 0 .7-1.9c0-1-.6-2.1-2-3-2.4-1.7-7.4-3-13.7-3.8l-3-5a6.9 6.9 0 0 1-1-4.9l.3-1.5a6.9 6.9 0 0 1 2.3-4L47 4.9A1.6 1.6 0 0 0 46 2h-4.6a8.9 8.9 0 0 0-4.9 1.5 86816.1 86816.1 0 0 1-11 7.3 8.9 8.9 0 0 0-3.5 4.8l-2.7 9.2Z" stroke="var(--text, #4c4f69)" fill="var(--text, #4c4f69)"/><path d="m12.5 36.7.4 2.2v.8l-1.3 5c.7.2 1.4.4 2.1.8a1 1 0 0 1-.8 1.8 9.4 9.4 0 0 0-1.8-.7 7.7 7.7 0 0 0 .2 2.3c.8 0 1.7 0 2.6.2a1 1 0 0 1-.3 2 9.5 9.5 0 0 0-1.7-.2c.5 1 1.1 1.8 1.9 2.6 3.6 4 10.4 6.5 18.2 6.5 7.8 0 14.7-2.6 18.4-6.5.7-.8 1.3-1.7 1.8-2.6l-1.8.1a1 1 0 0 1-.3-1.9 11.3 11.3 0 0 1 2.7-.2c.2-.7.2-1.5.1-2.3a9.4 9.4 0 0 0-1.8.7 1 1 0 0 1-.8-1.8 11.6 11.6 0 0 1 2.1-.8l-1.5-5a1 1 0 0 1 0-.5v-.4l.5-2a78.8 78.8 0 0 1-19.4 2c-7.7 0-14.7-.8-19.5-2Z" stroke="var(--text, #4c4f69)" fill="var(--crust, #dce0e8)"/><path d="m44.6 26.7 1.3 2.1a1 1 0 0 1-.5 1.5c-9 3.4-17.9 3.4-26.8 0A1 1 0 0 1 18 29l.6-2.3c-4.1.7-7.5 1.6-9.7 2.7-.7.4-1.2.7-1.6 1.1-.2.3-.4.5-.4.8 0 .3.2.6.5.9.4.4 1 .8 1.9 1.2 4.2 2 12.8 3.4 22.7 3.4s18.5-1.4 22.7-3.4c.8-.4 1.5-.8 1.9-1.2.3-.3.5-.6.5-.9 0-.3-.2-.6-.5-.8L55 29.4c-2.3-1.1-5.9-2-10.3-2.7Z" fill="var(--sub-text, #5c5f77)"/><path d="m21.1 25.5-1 3.3a34.4 34.4 0 0 0 23.5 0l-2-3.2a36 36 0 0 1-20.5-.1Z" stroke="var(--yellow, #df8e1d)" fill="var(--yellow, #df8e1d)" fill-opacity=".9"/><path style="fill-opcaity:.3" d="m40.5 23.8-2-3.2a8.9 8.9 0 0 1-1.1-6.2l.3-1.5a8.8 8.8 0 0 1 3-5.2L45 4h-3.7a6.9 6.9 0 0 0-3.7 1l-11 7.3a6.9 6.9 0 0 0-2.7 3.8l-2.2 7.4a34 34 0 0 0 18.8.2Z" fill="var(--subtext, #5c5f77)"/><path d="M19.7 39.9c-.9 0-1.8.4-2.5 1.2a7 7 0 0 0-1.4 4.5 7 7 0 0 0 1.4 4.4c.7.8 1.6 1.2 2.5 1.2 1 0 1.8-.4 2.5-1.2.8-1 1.4-2.6 1.4-4.4S23 42 22.2 41a3.3 3.3 0 0 0-2.5-1.2Zm0 2c.4 0 .7.2 1 .5.6.7 1 1.9 1 3.2s-.4 2.4-1 3c-.3.4-.6.6-1 .6s-.7-.2-1-.5a5 5 0 0 1-1-3.1 5 5 0 0 1 1-3.2c.3-.3.6-.5 1-.5Zm24.6-2c-1 0-1.8.4-2.5 1.2a7 7 0 0 0-1.4 4.5 7 7 0 0 0 1.4 4.4c.7.8 1.6 1.2 2.5 1.2.9 0 1.8-.4 2.5-1.2.8-1 1.4-2.6 1.4-4.4s-.6-3.5-1.4-4.5a3.3 3.3 0 0 0-2.5-1.2Zm0 2c.4 0 .7.2 1 .5.6.7 1 1.9 1 3.2s-.4 2.4-1 3c-.3.4-.6.6-1 .6s-.7-.2-1-.5a5 5 0 0 1-1-3.1 5 5 0 0 1 1-3.2c.3-.3.6-.5 1-.5ZM32 49.7a1 1 0 0 0-1 1c0 .5-.3 1-.7 1.4-.8 1-2.5.7-2.9-.6a1.8 1.8 0 0 1 0-.1 1 1 0 0 0 0-.2c-.6-1.4-2-1-2 .2v.5a3.7 3.7 0 0 0 2.1 2.4s1.3.5 2 .3a3.7 3.7 0 0 0 2.3-1.2l.2-.2.2.2c.6.7 1.5 1 2.3 1.2.7.2 1.4 0 2-.3a4 4 0 0 0 2-2.4l.1-.3c.3-1-1.2-2-1.9-.4v.2a1.7 1.7 0 0 1-3 .8c-.4-.5-.7-1-.7-1.5a1 1 0 0 0-1-1Z" fill="var(--text, #4c4f69)"/></svg>